<?xml version="1.0" encoding="UTF-8"?><svg id="Layer_1" xmlns="http://www.w3.org/2000/svg" viewBox="0 0 333.08 155.58"><defs><style>.cls-1{fill:#231f20;}</style></defs><path class="cls-1" d="M296.07,111.18c-20.4,0-36.9-16.5-36.9-36.91s16.5-37.01,36.9-37.01,37.01,16.5,37.01,37.01-16.7,36.91-37.01,36.91Zm-21.8-36.91c0,11.9,9.9,21.81,21.8,21.81s21.61-9.9,21.61-21.81-9.7-21.9-21.61-21.9-21.8,10-21.8,21.9Z"/><path class="cls-1" d="M219.01,110.48c-20,0-36.21-16.21-36.21-36.21s16.2-36.21,36.21-36.21c13.7,0,25.31,7.6,31.41,18.51-6.1,3.2-6.6,3.5-13.4,6.8-3.5-6.1-10.3-10.3-18-10.3-11.7,0-21.21,9.6-21.21,21.2s9.5,21.21,21.21,21.21c8,0,15-4.3,18.6-11.1,6.8,3.5,7,3.9,13.4,6.8-6.1,11.5-17.91,19.31-32.01,19.31Z"/><path class="cls-1" d="M129.64,89.07c1.6,9.4,10,10.7,15.81,10.7,5.5,0,13.9-1.6,13.9-8.9,0-15.21-42.51-5.4-42.51-32.11,0-14.7,13.8-21.6,26.71-21.6,14.9,0,28.61,6.5,28.61,23l-15.2-2.2c-1.9-8.3-9.2-8.6-14.1-8.6s-10.8,2.1-10.8,8.1c0,5.3,3.4,6.5,21.3,10.8,5.3,1.3,21.2,4.6,21.2,20.81,0,13.11-10.2,22.91-29.7,22.91-16,0-30.41-7.8-30.41-25.41l15.2,2.5Z"/><path class="cls-1" d="M135.22,23.72l-16.08,13.26c-2.66-2.99-6.86-7.04-12.86-10.45-14.63-8.31-29.12-6.67-34.16-6.03-16.54,2.11-27.49,10.7-31.75,14.47-3.39,3-12.37,11.15-16.88,25.32-.92,2.89-5.04,16.69,0,33.36,1.12,3.72,4.66,14.02,14.07,23.71,12.26,12.62,26.42,15.86,29.34,16.48,3.32,.7,16.86,3.25,32.55-2.81,12.52-4.84,20.21-12.76,23.71-16.88,5.22,4.02,10.45,8.04,15.67,12.06-1.43,1.69-3.45,3.94-6.03,6.43-9.7,9.34-19.16,14.05-21.7,15.27-4.51,2.16-15.08,7.11-29.74,7.64-16.49,.6-28.64-4.73-34.16-7.23-4.59-2.08-16.34-7.91-27.33-20.09-3.49-3.87-10.17-11.41-14.87-23.31-1.63-4.12-7.26-19.49-4.02-39.38,.78-4.77,3.59-19.15,14.47-33.76,4.11-5.52,16.33-20.42,38.18-27.73,5.49-1.84,19.07-5.7,36.17-3.22,3.86,.56,13.66,2.28,24.92,8.04,9.44,4.83,16.19,10.59,20.5,14.87Z"/></svg>