<?xml version="1.0" encoding="UTF-8"?><svg id="Layer_1" xmlns="http://www.w3.org/2000/svg" viewBox="0 0 333.58 156.08"><defs><style>.cls-1{fill:#fff;}</style></defs><path class="cls-1" d="M296.32,37.51c20.31,0,37.01,16.5,37.01,37.01s-16.7,36.9-37.01,36.9-36.91-16.5-36.91-36.9,16.51-37.01,36.91-37.01Zm21.61,37.01c0-11.9-9.71-21.91-21.61-21.91s-21.8,10.01-21.8,21.91,9.9,21.8,21.8,21.8,21.61-9.9,21.61-21.8Z"/><path class="cls-1" d="M237.87,84.62c6.8,3.5,7,3.9,13.4,6.8-6.1,11.5-17.9,19.31-32.01,19.31-20,0-36.2-16.21-36.2-36.21s16.2-36.21,36.2-36.21c13.7,0,25.31,7.6,31.41,18.5-6.1,3.2-6.6,3.51-13.4,6.81-3.5-6.11-10.31-10.31-18.01-10.31-11.7,0-21.2,9.6-21.2,21.21s9.5,21.2,21.2,21.2c8,0,15.01-4.3,18.61-11.1Z"/><path class="cls-1" d="M172.4,60.41l-15.21-2.2c-1.9-8.3-9.2-8.6-14.1-8.6s-10.8,2.1-10.8,8.1c0,5.31,3.4,6.5,21.3,10.8,5.3,1.31,21.21,4.61,21.21,20.81,0,13.11-10.2,22.91-29.71,22.91-16,0-30.41-7.81-30.41-25.41l15.21,2.5c1.6,9.4,10,10.7,15.8,10.7,5.5,0,13.9-1.6,13.9-8.9,0-15.2-42.51-5.4-42.51-32.11,0-14.7,13.81-21.6,26.71-21.6,14.9,0,28.61,6.5,28.61,23Z"/><path class="cls-1" d="M123.41,114.39c5.23,4.02,10.45,8.04,15.68,12.06-1.43,1.69-3.45,3.94-6.03,6.43-9.7,9.34-19.16,14.05-21.7,15.27-4.51,2.16-15.09,7.1-29.74,7.63-16.49,.6-28.64-4.73-34.16-7.23-4.6-2.08-16.34-7.91-27.33-20.09-3.49-3.87-10.17-11.42-14.87-23.31-1.63-4.12-7.27-19.5-4.02-39.39,.78-4.77,3.59-19.15,14.47-33.76,4.11-5.52,16.33-20.42,38.18-27.73,5.49-1.83,19.07-5.7,36.17-3.21,3.86,.56,13.66,2.28,24.91,8.04,9.45,4.82,16.2,10.59,20.5,14.86-5.36,4.43-10.72,8.85-16.08,13.27-2.65-2.99-6.85-7.04-12.86-10.45-14.63-8.31-29.12-6.67-34.16-6.03-16.53,2.11-27.49,10.7-31.75,14.47-3.38,2.99-12.37,11.14-16.87,25.32-.92,2.88-5.05,16.68,0,33.35,1.12,3.72,4.65,14.03,14.06,23.71,12.27,12.63,26.42,15.86,29.34,16.48,3.32,.7,16.86,3.25,32.55-2.81,12.52-4.84,20.21-12.76,23.71-16.88Z"/></svg>